<svg width="193" height="48" viewBox="0 0 193 48" fill="none" xmlns="http://www.w3.org/2000/svg">
<rect x="1.55371" y="0.75" width="190.5" height="46.5" rx="23.25" fill="#FFEEDF" stroke="#592A0F" stroke-width="1.5"/>
<path d="M35.3318 28.82C34.0384 30.1 32.5918 30.7467 30.9918 30.76C30.0584 30.76 29.1918 30.5267 28.3918 30.06C27.5918 29.5933 26.9718 28.94 26.5318 28.1C26.0384 27.1667 25.7918 26.0933 25.7918 24.88C25.7918 24.0933 25.8984 23.24 26.1118 22.32C26.6984 19.7333 27.8118 17.7467 29.4518 16.36C30.6384 15.36 31.8651 14.86 33.1318 14.86C34.0251 14.86 34.7851 15.0867 35.4118 15.54C36.5584 16.3667 37.1318 17.44 37.1318 18.76C37.1318 18.88 37.1251 19.0133 37.1118 19.16C37.0984 19.3067 37.0118 19.4867 36.8518 19.7C36.6918 19.9133 36.5251 20.08 36.3518 20.2C36.1784 20.3067 36.0318 20.3733 35.9118 20.4C35.8051 20.4267 35.7184 20.42 35.6518 20.38C35.5984 20.34 35.5784 20.2733 35.5918 20.18C35.6051 20.0733 35.6118 19.9733 35.6118 19.88C35.6118 19.3867 35.4918 18.8867 35.2518 18.38C35.0251 17.86 34.6584 17.42 34.1518 17.06C33.5118 16.6067 32.8051 16.38 32.0318 16.38C31.1251 16.38 30.3584 16.6467 29.7318 17.18C29.4518 17.42 29.1651 17.7667 28.8718 18.22C28.3251 19.0867 27.9251 20.0467 27.6718 21.1C27.4318 22.1533 27.3118 23.0467 27.3118 23.78C27.3118 24.9 27.5318 25.8733 27.9718 26.7C28.8651 28.3933 30.2384 29.24 32.0918 29.24C32.9984 29.24 33.7718 29.0067 34.4118 28.54C34.8651 28.22 35.2051 27.76 35.4318 27.16C35.4451 27.12 35.4718 27.08 35.5118 27.04L35.7918 24.02L31.0518 23.96C30.8518 23.96 30.7984 23.8333 30.8918 23.58C30.9984 23.2467 31.1984 22.9733 31.4918 22.76C31.7984 22.5467 32.0251 22.44 32.1718 22.44L37.1318 22.5C37.2784 22.5 37.3451 22.58 37.3318 22.74L36.6918 29.48C36.6784 29.6267 36.5918 29.8067 36.4318 30.02C36.2718 30.2467 36.1051 30.4133 35.9318 30.52C35.7584 30.64 35.6184 30.7133 35.5118 30.74C35.2718 30.8067 35.1584 30.7333 35.1718 30.52L35.3318 28.82ZM45.8261 29.5C45.8128 29.6467 45.7261 29.8267 45.5661 30.04C45.4061 30.2533 45.2395 30.4133 45.0661 30.52C44.8928 30.64 44.7461 30.7133 44.6261 30.74C44.3861 30.7933 44.2795 30.7133 44.3061 30.5L44.4461 29.2C44.0728 29.6267 43.6195 29.9933 43.0861 30.3C42.5528 30.6067 42.0061 30.76 41.4461 30.76C39.1661 30.7867 38.1928 29.2133 38.5261 26.04L39.0061 20.46C39.0195 20.3133 39.1061 20.1333 39.2661 19.92C39.4261 19.6933 39.5928 19.5267 39.7661 19.42C39.9395 19.3 40.0795 19.2267 40.1861 19.2C40.4261 19.1333 40.5395 19.2067 40.5261 19.42L40.0461 25.02C39.7395 27.8467 40.5661 29.2533 42.5261 29.24C42.9128 29.24 43.1995 29.1867 43.3861 29.08C43.8528 28.8133 44.2861 28.08 44.6861 26.88C44.6861 26.8667 44.6861 26.8467 44.6861 26.82L45.3661 20.44C45.3795 20.28 45.4661 20.1 45.6261 19.9C45.7861 19.6867 45.9528 19.5267 46.1261 19.42C46.2995 19.3 46.4461 19.2267 46.5661 19.2C46.8061 19.1467 46.9128 19.22 46.8861 19.42L45.8261 29.5ZM53.7219 28.38C53.8952 28.34 53.9952 28.3867 54.0219 28.52C54.0486 28.64 53.9952 28.8067 53.8619 29.02C53.7286 29.22 53.4686 29.48 53.0819 29.8C52.6952 30.1067 52.2686 30.36 51.8019 30.56C50.8819 30.9333 50.1952 30.84 49.7419 30.28C49.3152 29.7867 49.2019 28.8467 49.4019 27.46L49.9219 21.44H48.4019C48.2019 21.44 48.1486 21.3133 48.2419 21.06C48.3486 20.7267 48.5486 20.4533 48.8419 20.24C49.1486 20.0133 49.3752 19.9 49.5219 19.9H50.0619L50.3619 16.48C50.3752 16.3333 50.4619 16.1533 50.6219 15.94C50.7819 15.7267 50.9486 15.56 51.1219 15.44C51.2952 15.32 51.4352 15.2467 51.5419 15.22C51.7819 15.1533 51.8952 15.2267 51.8819 15.44L51.5019 19.9C52.0886 19.9 52.6686 19.9 53.2419 19.9C53.4419 19.9 53.4952 20.0333 53.4019 20.3C53.2952 20.6333 53.0886 20.9067 52.7819 21.12C52.4886 21.3333 52.2686 21.44 52.1219 21.44H51.3619L50.9219 26.44C50.9219 26.4533 50.9219 26.4667 50.9219 26.48C50.7352 27.68 50.8219 28.48 51.1819 28.88C51.5152 29.2933 51.9219 29.3933 52.4019 29.18C52.6286 29.0733 52.8619 28.92 53.1019 28.72C53.3552 28.52 53.5619 28.4067 53.7219 28.38ZM62.3243 19.82C62.5909 19.4867 62.8243 19.2933 63.0243 19.24C63.3576 19.1467 63.5176 19.2 63.5043 19.4C63.2376 23.7333 63.0376 26.3667 62.9043 27.3C62.7976 28.4067 62.6243 29.36 62.3843 30.16C62.1443 30.96 61.7509 31.7267 61.2043 32.46C60.6709 33.2067 60.0443 33.76 59.3243 34.12C58.6043 34.48 57.8776 34.6533 57.1443 34.64C55.6376 34.6267 54.6043 34.16 54.0443 33.24C53.9909 33.1467 54.0109 32.9933 54.1043 32.78C54.2109 32.58 54.3643 32.3867 54.5643 32.2C54.7643 32.0267 54.9576 31.9067 55.1443 31.84C55.3309 31.7733 55.4576 31.7867 55.5243 31.88C56.0043 32.6933 56.9176 33.1067 58.2643 33.12C59.2243 33.1333 59.8843 32.88 60.2443 32.36C60.7509 31.6533 61.1109 30.5133 61.3243 28.94C60.6309 29.7933 59.9243 30.3467 59.2043 30.6C58.4976 30.8667 57.8376 30.9133 57.2243 30.74C55.3176 30.2067 54.7443 28.0067 55.5043 24.14C55.7576 22.86 56.2043 21.8067 56.8443 20.98C57.9376 19.5667 59.2776 18.9667 60.8643 19.18C61.4643 19.26 61.9509 19.4733 62.3243 19.82ZM61.5443 26.7C61.6376 25.6733 61.6776 25.16 61.6643 25.16C61.6109 25.12 61.5909 25.0467 61.6043 24.94C61.9509 22.3267 61.3043 20.9133 59.6643 20.7C59.2643 20.6467 58.9176 20.6533 58.6243 20.72C58.2109 20.8 57.9376 20.9267 57.8043 21.1C57.4709 21.5267 57.1976 22.2867 56.9843 23.38C56.7709 24.4733 56.6776 25.44 56.7043 26.28C56.7843 27.9333 57.3709 28.9133 58.4643 29.22C59.3043 29.46 59.9509 29.3067 60.4043 28.76C60.7509 28.3467 61.0976 27.7267 61.4443 26.9C61.4709 26.8333 61.5043 26.7667 61.5443 26.7ZM66.1805 25.32C66.1272 27.7867 67.2005 29.0933 69.4005 29.24C69.8672 29.28 70.2872 29.2667 70.6605 29.2C71.1405 29.12 71.4072 29.0267 71.4605 28.92C71.5672 28.72 71.7205 28.5267 71.9205 28.34C72.1338 28.1533 72.3272 28.0333 72.5005 27.98C72.6738 27.9133 72.7938 27.9333 72.8605 28.04C72.9538 28.2133 72.8272 28.5267 72.4805 28.98C72.1338 29.4333 71.7738 29.7867 71.4005 30.04C71.0405 30.3067 70.6872 30.4867 70.3405 30.58C69.5672 30.7933 68.8672 30.8533 68.2405 30.76C65.6138 30.5867 64.4338 28.9267 64.7005 25.78C64.7805 24.8067 64.9272 23.9667 65.1405 23.26C65.3538 22.54 65.6938 21.8667 66.1605 21.24C67.2272 19.8 68.5538 19.1133 70.1405 19.18C72.6605 19.2733 73.7138 20.9467 73.3005 24.2C73.1805 24.7333 72.9138 25.1133 72.5005 25.34C72.3405 25.4333 72.1672 25.4733 71.9805 25.46L66.1805 25.32ZM66.3205 23.82C66.4138 23.7933 66.4872 23.78 66.5405 23.78L71.8605 23.9C71.8205 21.8333 70.8672 20.7667 69.0005 20.7C68.0938 20.66 67.4872 20.8533 67.1805 21.28C66.7805 21.8133 66.4938 22.66 66.3205 23.82ZM81.0478 19.18C83.5012 19.3933 84.4878 21.4 84.0078 25.2C83.8078 26.72 83.3612 27.94 82.6678 28.86C81.6012 30.2733 80.2745 30.9067 78.6878 30.76C75.9945 30.52 74.8545 28.7867 75.2678 25.56C75.3878 24.64 75.5612 23.8333 75.7878 23.14C76.0278 22.4467 76.3812 21.8 76.8478 21.2C77.9812 19.7067 79.3812 19.0333 81.0478 19.18ZM79.8878 20.7C78.8745 20.6067 78.1878 20.8 77.8278 21.28C77.6278 21.5333 77.4278 21.9533 77.2278 22.54C77.0278 23.1133 76.8812 23.7867 76.7878 24.56C76.4145 27.4667 77.4345 29.0267 79.8478 29.24C80.7678 29.32 81.3745 29.1667 81.6678 28.78C81.8145 28.58 81.9678 28.2533 82.1278 27.8C82.2878 27.3333 82.4078 26.8 82.4878 26.2C82.9412 22.72 82.0745 20.8867 79.8878 20.7ZM86.7696 20.44C86.7829 20.2933 86.8696 20.1133 87.0296 19.9C87.1896 19.6867 87.3562 19.5267 87.5296 19.42C87.7029 19.3 87.8496 19.2267 87.9696 19.2C88.2096 19.1467 88.3162 19.22 88.2896 19.42L88.1896 20.3C89.2162 19.4333 90.2762 19.06 91.3696 19.18C91.5562 19.2067 91.6029 19.3467 91.5096 19.6C91.3762 19.9467 91.1562 20.22 90.8496 20.42C90.5429 20.62 90.3296 20.7133 90.2096 20.7C89.5296 20.62 88.9496 20.76 88.4696 21.12C88.2429 21.2933 88.0829 21.7 87.9896 22.34L87.2296 29.5C87.2162 29.66 87.1296 29.84 86.9696 30.04C86.8096 30.2533 86.6429 30.4133 86.4696 30.52C86.2962 30.64 86.1496 30.7133 86.0296 30.74C85.7896 30.7933 85.6829 30.7133 85.7096 30.5L86.4496 23.5C86.4496 23.4733 86.4562 23.42 86.4696 23.34L86.7696 20.44ZM93.1563 20.44C93.1696 20.2933 93.2563 20.1133 93.4163 19.9C93.5763 19.6867 93.743 19.5267 93.9163 19.42C94.0896 19.3 94.2363 19.2267 94.3563 19.2C94.5963 19.1467 94.703 19.22 94.6763 19.42L93.6163 29.5C93.603 29.66 93.5163 29.84 93.3563 30.04C93.1963 30.2533 93.0296 30.4133 92.8563 30.52C92.683 30.64 92.5363 30.7133 92.4163 30.74C92.1763 30.7933 92.0696 30.7133 92.0963 30.5L93.1563 20.44ZM93.2563 17C93.2696 16.8533 93.3496 16.6733 93.4963 16.46C93.6563 16.2467 93.823 16.08 93.9963 15.96C94.1696 15.84 94.3163 15.7667 94.4363 15.74C94.6763 15.6733 94.7896 15.7467 94.7763 15.96L94.6763 17.36C94.663 17.5067 94.5763 17.6867 94.4163 17.9C94.2696 18.1133 94.1096 18.28 93.9363 18.4C93.763 18.52 93.6163 18.5933 93.4963 18.62C93.2563 18.6867 93.143 18.6133 93.1563 18.4L93.2563 17ZM107.345 16.1C107.358 15.9533 107.445 15.7733 107.605 15.56C107.778 15.3467 107.945 15.1867 108.105 15.08C108.278 14.96 108.418 14.8867 108.525 14.86C108.645 14.8333 108.731 14.84 108.785 14.88C108.851 14.92 108.878 14.9933 108.865 15.1L107.585 26.54C107.491 27.46 107.205 28.2467 106.725 28.9C105.831 30.1533 104.625 30.7733 103.105 30.76C100.851 30.7467 99.6779 29.68 99.5846 27.56C99.5846 27.4267 99.6512 27.2533 99.7846 27.04C99.9312 26.8267 100.091 26.66 100.265 26.54C100.438 26.4067 100.585 26.32 100.705 26.28C100.958 26.1867 101.091 26.24 101.105 26.44C101.198 28.2933 102.238 29.2267 104.225 29.24C104.905 29.24 105.378 29.14 105.645 28.94C105.725 28.8467 105.805 28.6533 105.885 28.36C105.978 28.0667 106.038 27.7933 106.065 27.54L107.345 16.1ZM118.552 28.64C118.725 28.6133 118.825 28.6667 118.852 28.8C118.879 28.92 118.819 29.0867 118.672 29.3C118.539 29.5133 118.305 29.7533 117.972 30.02C117.639 30.2867 117.285 30.4933 116.912 30.64C116.179 30.9333 115.725 30.8 115.552 30.24C115.472 30.0133 115.439 29.5933 115.452 28.98C114.759 29.82 114.059 30.3667 113.352 30.62C112.645 30.8733 111.985 30.9133 111.372 30.74C109.465 30.2067 108.892 28.0067 109.652 24.14C109.905 22.86 110.352 21.8067 110.992 20.98C112.085 19.5667 113.425 18.9667 115.012 19.18C115.679 19.26 116.199 19.5067 116.572 19.92C116.879 19.5067 117.199 19.26 117.532 19.18C117.639 19.1533 117.719 19.1667 117.772 19.22C117.839 19.26 117.865 19.3333 117.852 19.44C117.079 25.08 116.805 28.2533 117.032 28.96C117.139 29.28 117.312 29.38 117.552 29.26C117.659 29.2067 117.812 29.1 118.012 28.94C118.212 28.7667 118.392 28.6667 118.552 28.64ZM115.552 26.98C115.645 25.9133 115.712 25.2333 115.752 24.94C116.099 22.3267 115.452 20.9133 113.812 20.7C113.412 20.6467 113.065 20.6533 112.772 20.72C112.372 20.8 112.099 20.9267 111.952 21.1C111.619 21.5267 111.345 22.2867 111.132 23.38C110.919 24.4733 110.825 25.44 110.852 26.28C110.932 27.9333 111.519 28.9133 112.612 29.22C113.452 29.46 114.099 29.3067 114.552 28.76C114.885 28.36 115.219 27.7667 115.552 26.98ZM121.145 20.44C121.158 20.2933 121.245 20.1133 121.405 19.9C121.565 19.6867 121.731 19.5267 121.905 19.42C122.078 19.3 122.225 19.2267 122.345 19.2C122.585 19.1467 122.691 19.22 122.665 19.42L122.525 20.74C122.898 20.3133 123.351 19.9467 123.885 19.64C124.418 19.3333 124.965 19.18 125.525 19.18C127.805 19.1533 128.778 20.72 128.445 23.88L127.965 29.48C127.951 29.6267 127.865 29.8067 127.705 30.02C127.545 30.2333 127.378 30.4 127.205 30.52C127.031 30.64 126.891 30.7133 126.785 30.74C126.545 30.8067 126.431 30.7333 126.445 30.52L126.925 24.92C127.231 22.0933 126.405 20.6867 124.445 20.7C124.058 20.7 123.771 20.7533 123.585 20.86C123.118 21.1267 122.685 21.86 122.285 23.06C122.285 23.0733 122.285 23.0933 122.285 23.12L121.605 29.5C121.591 29.66 121.505 29.84 121.345 30.04C121.185 30.2533 121.018 30.4133 120.845 30.52C120.671 30.64 120.525 30.7133 120.405 30.74C120.165 30.7933 120.058 30.7133 120.085 30.5L121.145 20.44ZM138.184 19.82C138.45 19.4867 138.684 19.2933 138.884 19.24C139.217 19.1467 139.377 19.2 139.364 19.4C139.097 23.7333 138.897 26.3667 138.764 27.3C138.657 28.4067 138.484 29.36 138.244 30.16C138.004 30.96 137.61 31.7267 137.064 32.46C136.53 33.2067 135.904 33.76 135.184 34.12C134.464 34.48 133.737 34.6533 133.004 34.64C131.497 34.6267 130.464 34.16 129.904 33.24C129.85 33.1467 129.87 32.9933 129.964 32.78C130.07 32.58 130.224 32.3867 130.424 32.2C130.624 32.0267 130.817 31.9067 131.004 31.84C131.19 31.7733 131.317 31.7867 131.384 31.88C131.864 32.6933 132.777 33.1067 134.124 33.12C135.084 33.1333 135.744 32.88 136.104 32.36C136.61 31.6533 136.97 30.5133 137.184 28.94C136.49 29.7933 135.784 30.3467 135.064 30.6C134.357 30.8667 133.697 30.9133 133.084 30.74C131.177 30.2067 130.604 28.0067 131.364 24.14C131.617 22.86 132.064 21.8067 132.704 20.98C133.797 19.5667 135.137 18.9667 136.724 19.18C137.324 19.26 137.81 19.4733 138.184 19.82ZM137.404 26.7C137.497 25.6733 137.537 25.16 137.524 25.16C137.47 25.12 137.45 25.0467 137.464 24.94C137.81 22.3267 137.164 20.9133 135.524 20.7C135.124 20.6467 134.777 20.6533 134.484 20.72C134.07 20.8 133.797 20.9267 133.664 21.1C133.33 21.5267 133.057 22.2867 132.844 23.38C132.63 24.4733 132.537 25.44 132.564 26.28C132.644 27.9333 133.23 28.9133 134.324 29.22C135.164 29.46 135.81 29.3067 136.264 28.76C136.61 28.3467 136.957 27.7267 137.304 26.9C137.33 26.8333 137.364 26.7667 137.404 26.7ZM147.76 14.52C147.773 14.36 147.86 14.18 148.02 13.98C148.18 13.7667 148.347 13.6 148.52 13.48C148.693 13.36 148.833 13.2867 148.94 13.26C149.18 13.1933 149.293 13.2667 149.28 13.48L147.92 29.48C147.907 29.6267 147.82 29.8067 147.66 30.02C147.5 30.2333 147.333 30.4 147.16 30.52C146.987 30.64 146.847 30.7133 146.74 30.74C146.5 30.8067 146.387 30.7333 146.4 30.52L146.54 28.94C145.86 29.78 145.16 30.3333 144.44 30.6C143.72 30.8667 143.053 30.9133 142.44 30.74C140.547 30.1933 139.973 27.9933 140.72 24.14C140.973 22.86 141.42 21.8067 142.06 20.98C143.167 19.5667 144.507 18.9667 146.08 19.18C146.573 19.2467 146.987 19.3933 147.32 19.62L147.76 14.52ZM147.04 23.06C146.867 21.6333 146.147 20.8467 144.88 20.7C144.493 20.66 144.153 20.6667 143.86 20.72C143.433 20.8 143.153 20.9267 143.02 21.1C142.687 21.54 142.427 22.2467 142.24 23.22C141.547 26.7667 142.027 28.7667 143.68 29.22C144.52 29.46 145.167 29.3067 145.62 28.76C145.967 28.3467 146.313 27.7267 146.66 26.9C146.673 26.86 146.693 26.82 146.72 26.78L147.04 23.06ZM158.884 28.64C159.057 28.6133 159.157 28.6667 159.184 28.8C159.211 28.92 159.151 29.0867 159.004 29.3C158.871 29.5133 158.637 29.7533 158.304 30.02C157.971 30.2867 157.617 30.4933 157.244 30.64C156.511 30.9333 156.057 30.8 155.884 30.24C155.804 30.0133 155.771 29.5933 155.784 28.98C155.091 29.82 154.391 30.3667 153.684 30.62C152.977 30.8733 152.317 30.9133 151.704 30.74C149.797 30.2067 149.224 28.0067 149.984 24.14C150.237 22.86 150.684 21.8067 151.324 20.98C152.417 19.5667 153.757 18.9667 155.344 19.18C156.011 19.26 156.531 19.5067 156.904 19.92C157.211 19.5067 157.531 19.26 157.864 19.18C157.971 19.1533 158.051 19.1667 158.104 19.22C158.171 19.26 158.197 19.3333 158.184 19.44C157.411 25.08 157.137 28.2533 157.364 28.96C157.471 29.28 157.644 29.38 157.884 29.26C157.991 29.2067 158.144 29.1 158.344 28.94C158.544 28.7667 158.724 28.6667 158.884 28.64ZM155.884 26.98C155.977 25.9133 156.044 25.2333 156.084 24.94C156.431 22.3267 155.784 20.9133 154.144 20.7C153.744 20.6467 153.397 20.6533 153.104 20.72C152.704 20.8 152.431 20.9267 152.284 21.1C151.951 21.5267 151.677 22.2867 151.464 23.38C151.251 24.4733 151.157 25.44 151.184 26.28C151.264 27.9333 151.851 28.9133 152.944 29.22C153.784 29.46 154.431 29.3067 154.884 28.76C155.217 28.36 155.551 27.7667 155.884 26.98ZM161.477 20.44C161.49 20.2933 161.577 20.1133 161.737 19.9C161.897 19.6867 162.063 19.5267 162.237 19.42C162.41 19.3 162.557 19.2267 162.677 19.2C162.917 19.1467 163.023 19.22 162.997 19.42L162.857 20.74C163.23 20.3133 163.683 19.9467 164.217 19.64C164.75 19.3333 165.297 19.18 165.857 19.18C168.137 19.1533 169.11 20.72 168.777 23.88L168.297 29.48C168.283 29.6267 168.197 29.8067 168.037 30.02C167.877 30.2333 167.71 30.4 167.537 30.52C167.363 30.64 167.223 30.7133 167.117 30.74C166.877 30.8067 166.763 30.7333 166.777 30.52L167.257 24.92C167.563 22.0933 166.737 20.6867 164.777 20.7C164.39 20.7 164.103 20.7533 163.917 20.86C163.45 21.1267 163.017 21.86 162.617 23.06C162.617 23.0733 162.617 23.0933 162.617 23.12L161.937 29.5C161.923 29.66 161.837 29.84 161.677 30.04C161.517 30.2533 161.35 30.4133 161.177 30.52C161.003 30.64 160.857 30.7133 160.737 30.74C160.497 30.7933 160.39 30.7133 160.417 30.5L161.477 20.44Z" fill="#401E0B"/>
</svg>
