<svg width="233" height="48" viewBox="0 0 233 48" fill="none" xmlns="http://www.w3.org/2000/svg">
<rect x="1.55371" y="0.75" width="230.5" height="46.5" rx="23.25" fill="#FFEEDF" stroke="#592A0F" stroke-width="1.5"/>
<path d="M32.6044 22.46C32.8977 22.6467 33.2377 22.9733 33.6244 23.44C34.0244 23.8933 34.2844 24.4533 34.4044 25.12C34.5377 25.7733 34.4777 26.4067 34.2244 27.02C33.9711 27.62 33.6111 28.1733 33.1444 28.68C32.0911 29.8133 30.6577 30.5067 28.8444 30.76C27.5777 30.92 26.1111 30.92 24.4444 30.76C24.3111 30.7467 24.2511 30.6667 24.2644 30.52L25.5044 16.12C25.6644 15.5467 25.9444 15.1533 26.3444 14.94C26.5044 14.86 26.6711 14.8267 26.8444 14.84C28.1111 14.96 29.2711 15.1267 30.3244 15.34C31.3777 15.5533 32.1844 15.8667 32.7444 16.28C33.8111 17.0667 34.3577 18 34.3844 19.08C34.3977 20.2533 33.8044 21.38 32.6044 22.46ZM31.9644 28.62C32.2044 28.4733 32.3711 28.3533 32.4644 28.26C32.5711 28.1533 32.6911 27.9267 32.8244 27.58C32.9711 27.2333 32.9911 26.7933 32.8844 26.26C32.7911 25.7133 32.5044 25.1667 32.0244 24.62C31.5577 24.0733 31.1911 23.7867 30.9244 23.76C30.4977 23.7333 29.9644 23.72 29.3244 23.72C28.6977 23.72 27.6844 23.6933 26.2844 23.64L25.8044 29.26C28.6311 29.5133 30.6844 29.3 31.9644 28.62ZM26.4244 21.96L29.8844 22.12C30.3777 22.1467 30.8244 22.1733 31.2244 22.2C31.6111 22.1733 31.9844 21.98 32.3444 21.62C32.7044 21.26 32.8777 20.82 32.8644 20.3C32.8377 19.3 32.3977 18.48 31.5444 17.84C30.9177 17.3733 30.0177 17.0267 28.8444 16.8C28.2844 16.6933 27.6377 16.5933 26.9044 16.5L26.4244 21.96ZM43.7166 20.46C43.7299 20.3133 43.8099 20.1333 43.9566 19.92C44.1166 19.7067 44.2833 19.54 44.4566 19.42C44.6299 19.3 44.7699 19.2267 44.8766 19.2C45.1299 19.1333 45.2499 19.2 45.2366 19.4C44.9699 23.7333 44.7699 26.3667 44.6366 27.3C44.5299 28.4067 44.3566 29.36 44.1166 30.16C43.8766 30.96 43.4833 31.7267 42.9366 32.46C42.4033 33.2067 41.7766 33.76 41.0566 34.12C40.3366 34.48 39.6099 34.6533 38.8766 34.64C37.3699 34.6267 36.3366 34.16 35.7766 33.24C35.7233 33.1467 35.7433 32.9933 35.8366 32.78C35.9433 32.58 36.0966 32.3867 36.2966 32.2C36.4966 32.0267 36.6899 31.9067 36.8766 31.84C37.0633 31.7733 37.1899 31.7867 37.2566 31.88C37.7366 32.6933 38.6499 33.1067 39.9966 33.12C40.9566 33.1333 41.6166 32.88 41.9766 32.36C42.4699 31.6667 42.8233 30.56 43.0366 29.04C41.7299 30.6133 40.3699 31.1733 38.9566 30.72C37.0899 30.1333 36.6366 26.7 37.5966 20.42C37.6233 20.26 37.7166 20.08 37.8766 19.88C38.0499 19.6667 38.2166 19.5067 38.3766 19.4C38.5499 19.28 38.6899 19.2133 38.7966 19.2C38.9166 19.1733 39.0033 19.1867 39.0566 19.24C39.1099 19.28 39.1299 19.3467 39.1166 19.44C38.5299 23.4533 38.5099 26.26 39.0566 27.86C39.3233 28.62 39.7099 29.08 40.2166 29.24C41.0433 29.5067 41.6899 29.3667 42.1566 28.82C42.5166 28.4067 42.8699 27.7733 43.2166 26.92C43.2299 26.88 43.2499 26.8333 43.2766 26.78C43.3966 25.42 43.5433 23.3133 43.7166 20.46ZM48.443 25.32C48.3897 27.7867 49.463 29.0933 51.663 29.24C52.1297 29.28 52.5497 29.2667 52.923 29.2C53.403 29.12 53.6697 29.0267 53.723 28.92C53.8297 28.72 53.983 28.5267 54.183 28.34C54.3963 28.1533 54.5897 28.0333 54.763 27.98C54.9363 27.9133 55.0563 27.9333 55.123 28.04C55.2163 28.2133 55.0897 28.5267 54.743 28.98C54.3963 29.4333 54.0363 29.7867 53.663 30.04C53.303 30.3067 52.9497 30.4867 52.603 30.58C51.8297 30.7933 51.1297 30.8533 50.503 30.76C47.8763 30.5867 46.6963 28.9267 46.963 25.78C47.043 24.8067 47.1897 23.9667 47.403 23.26C47.6163 22.54 47.9563 21.8667 48.423 21.24C49.4897 19.8 50.8163 19.1133 52.403 19.18C54.923 19.2733 55.9763 20.9467 55.563 24.2C55.443 24.7333 55.1763 25.1133 54.763 25.34C54.603 25.4333 54.4297 25.4733 54.243 25.46L48.443 25.32ZM48.583 23.82C48.6763 23.7933 48.7497 23.78 48.803 23.78L54.123 23.9C54.083 21.8333 53.1297 20.7667 51.263 20.7C50.3563 20.66 49.7497 20.8533 49.443 21.28C49.043 21.8133 48.7563 22.66 48.583 23.82ZM63.3104 19.18C65.7637 19.3933 66.7504 21.4 66.2704 25.2C66.0704 26.72 65.6237 27.94 64.9304 28.86C63.8637 30.2733 62.537 30.9067 60.9504 30.76C58.257 30.52 57.117 28.7867 57.5304 25.56C57.6504 24.64 57.8237 23.8333 58.0504 23.14C58.2904 22.4467 58.6437 21.8 59.1104 21.2C60.2437 19.7067 61.6437 19.0333 63.3104 19.18ZM62.1504 20.7C61.137 20.6067 60.4504 20.8 60.0904 21.28C59.8904 21.5333 59.6904 21.9533 59.4904 22.54C59.2904 23.1133 59.1437 23.7867 59.0504 24.56C58.677 27.4667 59.697 29.0267 62.1104 29.24C63.0304 29.32 63.637 29.1667 63.9304 28.78C64.077 28.58 64.2304 28.2533 64.3904 27.8C64.5504 27.3333 64.6704 26.8 64.7504 26.2C65.2037 22.72 64.337 20.8867 62.1504 20.7ZM69.3721 14.44C69.3854 14.28 69.4721 14.0933 69.6321 13.88C69.7921 13.6667 69.9587 13.5067 70.1321 13.4C70.3054 13.28 70.4454 13.2067 70.5521 13.18C70.7921 13.1133 70.9054 13.1867 70.8921 13.4L69.4121 29.48C69.3987 29.6267 69.3121 29.8067 69.1521 30.02C68.9921 30.2467 68.8254 30.4133 68.6521 30.52C68.4787 30.64 68.3387 30.7133 68.2321 30.74C67.9921 30.8067 67.8787 30.7333 67.8921 30.52L69.3721 14.44ZM79.1435 14.52C79.1568 14.36 79.2435 14.18 79.4035 13.98C79.5635 13.7667 79.7301 13.6 79.9035 13.48C80.0768 13.36 80.2168 13.2867 80.3235 13.26C80.5635 13.1933 80.6768 13.2667 80.6635 13.48L79.3035 29.48C79.2901 29.6267 79.2035 29.8067 79.0435 30.02C78.8835 30.2333 78.7168 30.4 78.5435 30.52C78.3701 30.64 78.2301 30.7133 78.1235 30.74C77.8835 30.8067 77.7701 30.7333 77.7835 30.52L77.9235 28.94C77.2435 29.78 76.5435 30.3333 75.8235 30.6C75.1035 30.8667 74.4368 30.9133 73.8235 30.74C71.9301 30.1933 71.3568 27.9933 72.1035 24.14C72.3568 22.86 72.8035 21.8067 73.4435 20.98C74.5501 19.5667 75.8901 18.9667 77.4635 19.18C77.9568 19.2467 78.3701 19.3933 78.7035 19.62L79.1435 14.52ZM78.4235 23.06C78.2501 21.6333 77.5301 20.8467 76.2635 20.7C75.8768 20.66 75.5368 20.6667 75.2435 20.72C74.8168 20.8 74.5368 20.9267 74.4035 21.1C74.0701 21.54 73.8101 22.2467 73.6235 23.22C72.9301 26.7667 73.4101 28.7667 75.0635 29.22C75.9035 29.46 76.5501 29.3067 77.0035 28.76C77.3501 28.3467 77.6968 27.7267 78.0435 26.9C78.0568 26.86 78.0768 26.82 78.1035 26.78L78.4235 23.06ZM90.2677 28.64C90.441 28.6133 90.541 28.6667 90.5677 28.8C90.5944 28.92 90.5344 29.0867 90.3877 29.3C90.2544 29.5133 90.021 29.7533 89.6877 30.02C89.3544 30.2867 89.001 30.4933 88.6277 30.64C87.8944 30.9333 87.441 30.8 87.2677 30.24C87.1877 30.0133 87.1544 29.5933 87.1677 28.98C86.4744 29.82 85.7744 30.3667 85.0677 30.62C84.361 30.8733 83.701 30.9133 83.0877 30.74C81.181 30.2067 80.6077 28.0067 81.3677 24.14C81.621 22.86 82.0677 21.8067 82.7077 20.98C83.801 19.5667 85.141 18.9667 86.7277 19.18C87.3944 19.26 87.9144 19.5067 88.2877 19.92C88.5944 19.5067 88.9144 19.26 89.2477 19.18C89.3544 19.1533 89.4344 19.1667 89.4877 19.22C89.5544 19.26 89.581 19.3333 89.5677 19.44C88.7944 25.08 88.521 28.2533 88.7477 28.96C88.8544 29.28 89.0277 29.38 89.2677 29.26C89.3744 29.2067 89.5277 29.1 89.7277 28.94C89.9277 28.7667 90.1077 28.6667 90.2677 28.64ZM87.2677 26.98C87.361 25.9133 87.4277 25.2333 87.4677 24.94C87.8144 22.3267 87.1677 20.9133 85.5277 20.7C85.1277 20.6467 84.781 20.6533 84.4877 20.72C84.0877 20.8 83.8144 20.9267 83.6677 21.1C83.3344 21.5267 83.061 22.2867 82.8477 23.38C82.6344 24.4733 82.541 25.44 82.5677 26.28C82.6477 27.9333 83.2344 28.9133 84.3277 29.22C85.1677 29.46 85.8144 29.3067 86.2677 28.76C86.601 28.36 86.9344 27.7667 87.2677 26.98ZM93.2002 14.44C93.2135 14.28 93.3002 14.0933 93.4602 13.88C93.6202 13.6667 93.7869 13.5067 93.9602 13.4C94.1335 13.28 94.2735 13.2067 94.3802 13.18C94.6202 13.1133 94.7335 13.1867 94.7202 13.4L93.2402 29.48C93.2269 29.6267 93.1402 29.8067 92.9802 30.02C92.8202 30.2467 92.6535 30.4133 92.4802 30.52C92.3069 30.64 92.1669 30.7133 92.0602 30.74C91.8202 30.8067 91.7069 30.7333 91.7202 30.52L93.2002 14.44ZM103.552 19.82C103.818 19.4867 104.052 19.2933 104.252 19.24C104.585 19.1467 104.745 19.2 104.732 19.4C104.465 23.7333 104.265 26.3667 104.132 27.3C104.025 28.4067 103.852 29.36 103.612 30.16C103.372 30.96 102.978 31.7267 102.432 32.46C101.898 33.2067 101.272 33.76 100.552 34.12C99.8316 34.48 99.1049 34.6533 98.3716 34.64C96.8649 34.6267 95.8316 34.16 95.2716 33.24C95.2183 33.1467 95.2383 32.9933 95.3316 32.78C95.4383 32.58 95.5916 32.3867 95.7916 32.2C95.9916 32.0267 96.1849 31.9067 96.3716 31.84C96.5583 31.7733 96.6849 31.7867 96.7516 31.88C97.2316 32.6933 98.1449 33.1067 99.4916 33.12C100.452 33.1333 101.112 32.88 101.472 32.36C101.978 31.6533 102.338 30.5133 102.552 28.94C101.858 29.7933 101.152 30.3467 100.432 30.6C99.7249 30.8667 99.0649 30.9133 98.4516 30.74C96.5449 30.2067 95.9716 28.0067 96.7316 24.14C96.9849 22.86 97.4316 21.8067 98.0716 20.98C99.1649 19.5667 100.505 18.9667 102.092 19.18C102.692 19.26 103.178 19.4733 103.552 19.82ZM102.772 26.7C102.865 25.6733 102.905 25.16 102.892 25.16C102.838 25.12 102.818 25.0467 102.832 24.94C103.178 22.3267 102.532 20.9133 100.892 20.7C100.492 20.6467 100.145 20.6533 99.8516 20.72C99.4383 20.8 99.1649 20.9267 99.0316 21.1C98.6983 21.5267 98.4249 22.2867 98.2116 23.38C97.9983 24.4733 97.9049 25.44 97.9316 26.28C98.0116 27.9333 98.5983 28.9133 99.6916 29.22C100.532 29.46 101.178 29.3067 101.632 28.76C101.978 28.3467 102.325 27.7267 102.672 26.9C102.698 26.8333 102.732 26.7667 102.772 26.7ZM107.408 25.32C107.355 27.7867 108.428 29.0933 110.628 29.24C111.095 29.28 111.515 29.2667 111.888 29.2C112.368 29.12 112.635 29.0267 112.688 28.92C112.795 28.72 112.948 28.5267 113.148 28.34C113.361 28.1533 113.555 28.0333 113.728 27.98C113.901 27.9133 114.021 27.9333 114.088 28.04C114.181 28.2133 114.055 28.5267 113.708 28.98C113.361 29.4333 113.001 29.7867 112.628 30.04C112.268 30.3067 111.915 30.4867 111.568 30.58C110.795 30.7933 110.095 30.8533 109.468 30.76C106.841 30.5867 105.661 28.9267 105.928 25.78C106.008 24.8067 106.155 23.9667 106.368 23.26C106.581 22.54 106.921 21.8667 107.388 21.24C108.455 19.8 109.781 19.1133 111.368 19.18C113.888 19.2733 114.941 20.9467 114.528 24.2C114.408 24.7333 114.141 25.1133 113.728 25.34C113.568 25.4333 113.395 25.4733 113.208 25.46L107.408 25.32ZM107.548 23.82C107.641 23.7933 107.715 23.78 107.768 23.78L113.088 23.9C113.048 21.8333 112.095 20.7667 110.228 20.7C109.321 20.66 108.715 20.8533 108.408 21.28C108.008 21.8133 107.721 22.66 107.548 23.82ZM122.275 19.18C124.729 19.3933 125.715 21.4 125.235 25.2C125.035 26.72 124.589 27.94 123.895 28.86C122.829 30.2733 121.502 30.9067 119.915 30.76C117.222 30.52 116.082 28.7867 116.495 25.56C116.615 24.64 116.789 23.8333 117.015 23.14C117.255 22.4467 117.609 21.8 118.075 21.2C119.209 19.7067 120.609 19.0333 122.275 19.18ZM121.115 20.7C120.102 20.6067 119.415 20.8 119.055 21.28C118.855 21.5333 118.655 21.9533 118.455 22.54C118.255 23.1133 118.109 23.7867 118.015 24.56C117.642 27.4667 118.662 29.0267 121.075 29.24C121.995 29.32 122.602 29.1667 122.895 28.78C123.042 28.58 123.195 28.2533 123.355 27.8C123.515 27.3333 123.635 26.8 123.715 26.2C124.169 22.72 123.302 20.8867 121.115 20.7ZM127.997 20.44C128.01 20.2933 128.097 20.1133 128.257 19.9C128.417 19.6867 128.584 19.5267 128.757 19.42C128.93 19.3 129.077 19.2267 129.197 19.2C129.437 19.1467 129.544 19.22 129.517 19.42L129.417 20.3C130.444 19.4333 131.504 19.06 132.597 19.18C132.784 19.2067 132.83 19.3467 132.737 19.6C132.604 19.9467 132.384 20.22 132.077 20.42C131.77 20.62 131.557 20.7133 131.437 20.7C130.757 20.62 130.177 20.76 129.697 21.12C129.47 21.2933 129.31 21.7 129.217 22.34L128.457 29.5C128.444 29.66 128.357 29.84 128.197 30.04C128.037 30.2533 127.87 30.4133 127.697 30.52C127.524 30.64 127.377 30.7133 127.257 30.74C127.017 30.7933 126.91 30.7133 126.937 30.5L127.677 23.5C127.677 23.4733 127.684 23.42 127.697 23.34L127.997 20.44ZM134.384 20.44C134.397 20.2933 134.484 20.1133 134.644 19.9C134.804 19.6867 134.97 19.5267 135.144 19.42C135.317 19.3 135.464 19.2267 135.584 19.2C135.824 19.1467 135.93 19.22 135.904 19.42L134.844 29.5C134.83 29.66 134.744 29.84 134.584 30.04C134.424 30.2533 134.257 30.4133 134.084 30.52C133.91 30.64 133.764 30.7133 133.644 30.74C133.404 30.7933 133.297 30.7133 133.324 30.5L134.384 20.44ZM134.484 17C134.497 16.8533 134.577 16.6733 134.724 16.46C134.884 16.2467 135.05 16.08 135.224 15.96C135.397 15.84 135.544 15.7667 135.664 15.74C135.904 15.6733 136.017 15.7467 136.004 15.96L135.904 17.36C135.89 17.5067 135.804 17.6867 135.644 17.9C135.497 18.1133 135.337 18.28 135.164 18.4C134.99 18.52 134.844 18.5933 134.724 18.62C134.484 18.6867 134.37 18.6133 134.384 18.4L134.484 17ZM148.572 16.1C148.585 15.9533 148.672 15.7733 148.832 15.56C149.005 15.3467 149.172 15.1867 149.332 15.08C149.505 14.96 149.645 14.8867 149.752 14.86C149.872 14.8333 149.959 14.84 150.012 14.88C150.079 14.92 150.105 14.9933 150.092 15.1L148.812 26.54C148.719 27.46 148.432 28.2467 147.952 28.9C147.059 30.1533 145.852 30.7733 144.332 30.76C142.079 30.7467 140.905 29.68 140.812 27.56C140.812 27.4267 140.879 27.2533 141.012 27.04C141.159 26.8267 141.319 26.66 141.492 26.54C141.665 26.4067 141.812 26.32 141.932 26.28C142.185 26.1867 142.319 26.24 142.332 26.44C142.425 28.2933 143.465 29.2267 145.452 29.24C146.132 29.24 146.605 29.14 146.872 28.94C146.952 28.8467 147.032 28.6533 147.112 28.36C147.205 28.0667 147.265 27.7933 147.292 27.54L148.572 16.1ZM159.779 28.64C159.953 28.6133 160.053 28.6667 160.079 28.8C160.106 28.92 160.046 29.0867 159.899 29.3C159.766 29.5133 159.533 29.7533 159.199 30.02C158.866 30.2867 158.513 30.4933 158.139 30.64C157.406 30.9333 156.953 30.8 156.779 30.24C156.699 30.0133 156.666 29.5933 156.679 28.98C155.986 29.82 155.286 30.3667 154.579 30.62C153.873 30.8733 153.213 30.9133 152.599 30.74C150.693 30.2067 150.119 28.0067 150.879 24.14C151.133 22.86 151.579 21.8067 152.219 20.98C153.313 19.5667 154.653 18.9667 156.239 19.18C156.906 19.26 157.426 19.5067 157.799 19.92C158.106 19.5067 158.426 19.26 158.759 19.18C158.866 19.1533 158.946 19.1667 158.999 19.22C159.066 19.26 159.093 19.3333 159.079 19.44C158.306 25.08 158.033 28.2533 158.259 28.96C158.366 29.28 158.539 29.38 158.779 29.26C158.886 29.2067 159.039 29.1 159.239 28.94C159.439 28.7667 159.619 28.6667 159.779 28.64ZM156.779 26.98C156.873 25.9133 156.939 25.2333 156.979 24.94C157.326 22.3267 156.679 20.9133 155.039 20.7C154.639 20.6467 154.293 20.6533 153.999 20.72C153.599 20.8 153.326 20.9267 153.179 21.1C152.846 21.5267 152.573 22.2867 152.359 23.38C152.146 24.4733 152.053 25.44 152.079 26.28C152.159 27.9333 152.746 28.9133 153.839 29.22C154.679 29.46 155.326 29.3067 155.779 28.76C156.113 28.36 156.446 27.7667 156.779 26.98ZM162.372 20.44C162.385 20.2933 162.472 20.1133 162.632 19.9C162.792 19.6867 162.959 19.5267 163.132 19.42C163.305 19.3 163.452 19.2267 163.572 19.2C163.812 19.1467 163.919 19.22 163.892 19.42L163.752 20.74C164.125 20.3133 164.579 19.9467 165.112 19.64C165.645 19.3333 166.192 19.18 166.752 19.18C169.032 19.1533 170.005 20.72 169.672 23.88L169.192 29.48C169.179 29.6267 169.092 29.8067 168.932 30.02C168.772 30.2333 168.605 30.4 168.432 30.52C168.259 30.64 168.119 30.7133 168.012 30.74C167.772 30.8067 167.659 30.7333 167.672 30.52L168.152 24.92C168.459 22.0933 167.632 20.6867 165.672 20.7C165.285 20.7 164.999 20.7533 164.812 20.86C164.345 21.1267 163.912 21.86 163.512 23.06C163.512 23.0733 163.512 23.0933 163.512 23.12L162.832 29.5C162.819 29.66 162.732 29.84 162.572 30.04C162.412 30.2533 162.245 30.4133 162.072 30.52C161.899 30.64 161.752 30.7133 161.632 30.74C161.392 30.7933 161.285 30.7133 161.312 30.5L162.372 20.44ZM179.411 19.82C179.678 19.4867 179.911 19.2933 180.111 19.24C180.444 19.1467 180.604 19.2 180.591 19.4C180.324 23.7333 180.124 26.3667 179.991 27.3C179.884 28.4067 179.711 29.36 179.471 30.16C179.231 30.96 178.838 31.7267 178.291 32.46C177.758 33.2067 177.131 33.76 176.411 34.12C175.691 34.48 174.964 34.6533 174.231 34.64C172.724 34.6267 171.691 34.16 171.131 33.24C171.078 33.1467 171.098 32.9933 171.191 32.78C171.298 32.58 171.451 32.3867 171.651 32.2C171.851 32.0267 172.044 31.9067 172.231 31.84C172.418 31.7733 172.544 31.7867 172.611 31.88C173.091 32.6933 174.004 33.1067 175.351 33.12C176.311 33.1333 176.971 32.88 177.331 32.36C177.838 31.6533 178.198 30.5133 178.411 28.94C177.718 29.7933 177.011 30.3467 176.291 30.6C175.584 30.8667 174.924 30.9133 174.311 30.74C172.404 30.2067 171.831 28.0067 172.591 24.14C172.844 22.86 173.291 21.8067 173.931 20.98C175.024 19.5667 176.364 18.9667 177.951 19.18C178.551 19.26 179.038 19.4733 179.411 19.82ZM178.631 26.7C178.724 25.6733 178.764 25.16 178.751 25.16C178.698 25.12 178.678 25.0467 178.691 24.94C179.038 22.3267 178.391 20.9133 176.751 20.7C176.351 20.6467 176.004 20.6533 175.711 20.72C175.298 20.8 175.024 20.9267 174.891 21.1C174.558 21.5267 174.284 22.2867 174.071 23.38C173.858 24.4733 173.764 25.44 173.791 26.28C173.871 27.9333 174.458 28.9133 175.551 29.22C176.391 29.46 177.038 29.3067 177.491 28.76C177.838 28.3467 178.184 27.7267 178.531 26.9C178.558 26.8333 178.591 26.7667 178.631 26.7ZM188.987 14.52C189.001 14.36 189.087 14.18 189.247 13.98C189.407 13.7667 189.574 13.6 189.747 13.48C189.921 13.36 190.061 13.2867 190.167 13.26C190.407 13.1933 190.521 13.2667 190.507 13.48L189.147 29.48C189.134 29.6267 189.047 29.8067 188.887 30.02C188.727 30.2333 188.561 30.4 188.387 30.52C188.214 30.64 188.074 30.7133 187.967 30.74C187.727 30.8067 187.614 30.7333 187.627 30.52L187.767 28.94C187.087 29.78 186.387 30.3333 185.667 30.6C184.947 30.8667 184.281 30.9133 183.667 30.74C181.774 30.1933 181.201 27.9933 181.947 24.14C182.201 22.86 182.647 21.8067 183.287 20.98C184.394 19.5667 185.734 18.9667 187.307 19.18C187.801 19.2467 188.214 19.3933 188.547 19.62L188.987 14.52ZM188.267 23.06C188.094 21.6333 187.374 20.8467 186.107 20.7C185.721 20.66 185.381 20.6667 185.087 20.72C184.661 20.8 184.381 20.9267 184.247 21.1C183.914 21.54 183.654 22.2467 183.467 23.22C182.774 26.7667 183.254 28.7667 184.907 29.22C185.747 29.46 186.394 29.3067 186.847 28.76C187.194 28.3467 187.541 27.7267 187.887 26.9C187.901 26.86 187.921 26.82 187.947 26.78L188.267 23.06ZM200.111 28.64C200.285 28.6133 200.385 28.6667 200.411 28.8C200.438 28.92 200.378 29.0867 200.231 29.3C200.098 29.5133 199.865 29.7533 199.531 30.02C199.198 30.2867 198.845 30.4933 198.471 30.64C197.738 30.9333 197.285 30.8 197.111 30.24C197.031 30.0133 196.998 29.5933 197.011 28.98C196.318 29.82 195.618 30.3667 194.911 30.62C194.205 30.8733 193.545 30.9133 192.931 30.74C191.025 30.2067 190.451 28.0067 191.211 24.14C191.465 22.86 191.911 21.8067 192.551 20.98C193.645 19.5667 194.985 18.9667 196.571 19.18C197.238 19.26 197.758 19.5067 198.131 19.92C198.438 19.5067 198.758 19.26 199.091 19.18C199.198 19.1533 199.278 19.1667 199.331 19.22C199.398 19.26 199.425 19.3333 199.411 19.44C198.638 25.08 198.365 28.2533 198.591 28.96C198.698 29.28 198.871 29.38 199.111 29.26C199.218 29.2067 199.371 29.1 199.571 28.94C199.771 28.7667 199.951 28.6667 200.111 28.64ZM197.111 26.98C197.205 25.9133 197.271 25.2333 197.311 24.94C197.658 22.3267 197.011 20.9133 195.371 20.7C194.971 20.6467 194.625 20.6533 194.331 20.72C193.931 20.8 193.658 20.9267 193.511 21.1C193.178 21.5267 192.905 22.2867 192.691 23.38C192.478 24.4733 192.385 25.44 192.411 26.28C192.491 27.9333 193.078 28.9133 194.171 29.22C195.011 29.46 195.658 29.3067 196.111 28.76C196.445 28.36 196.778 27.7667 197.111 26.98ZM202.704 20.44C202.717 20.2933 202.804 20.1133 202.964 19.9C203.124 19.6867 203.291 19.5267 203.464 19.42C203.637 19.3 203.784 19.2267 203.904 19.2C204.144 19.1467 204.251 19.22 204.224 19.42L204.084 20.74C204.457 20.3133 204.911 19.9467 205.444 19.64C205.977 19.3333 206.524 19.18 207.084 19.18C209.364 19.1533 210.337 20.72 210.004 23.88L209.524 29.48C209.511 29.6267 209.424 29.8067 209.264 30.02C209.104 30.2333 208.937 30.4 208.764 30.52C208.591 30.64 208.451 30.7133 208.344 30.74C208.104 30.8067 207.991 30.7333 208.004 30.52L208.484 24.92C208.791 22.0933 207.964 20.6867 206.004 20.7C205.617 20.7 205.331 20.7533 205.144 20.86C204.677 21.1267 204.244 21.86 203.844 23.06C203.844 23.0733 203.844 23.0933 203.844 23.12L203.164 29.5C203.151 29.66 203.064 29.84 202.904 30.04C202.744 30.2533 202.577 30.4133 202.404 30.52C202.231 30.64 202.084 30.7133 201.964 30.74C201.724 30.7933 201.617 30.7133 201.644 30.5L202.704 20.44Z" fill="#401E0B"/>
</svg>
