<svg width="193" height="48" viewBox="0 0 193 48" fill="none" xmlns="http://www.w3.org/2000/svg">
<rect x="1.55371" y="0.75" width="190.5" height="46.5" rx="23.25" fill="#FFEEDF" stroke="#592A0F" stroke-width="1.5"/>
<path d="M35.4523 18.64C35.3456 18.84 35.1923 19.0333 34.9923 19.22C34.7923 19.3933 34.599 19.5133 34.4123 19.58C34.2256 19.6333 34.1056 19.6133 34.0523 19.52C33.599 18.6533 32.9723 17.9333 32.1723 17.36C31.3723 16.7867 30.519 16.4533 29.6123 16.36C29.0523 16.3067 28.559 16.3467 28.1323 16.48C27.719 16.6 27.4256 16.7467 27.2523 16.92C27.0923 17.0933 26.9723 17.4067 26.8923 17.86C26.8123 18.3 26.8856 18.7867 27.1123 19.32C27.339 19.8533 27.699 20.3 28.1923 20.66C28.6856 21.0067 29.2923 21.3067 30.0123 21.56C30.0523 21.5733 30.3123 21.6667 30.7923 21.84C31.2723 22 31.639 22.1333 31.8923 22.24C33.6123 22.9733 34.579 24.06 34.7923 25.5C34.939 26.46 34.7056 27.4 34.0923 28.32C33.7456 28.8533 33.319 29.3133 32.8123 29.7C31.5456 30.66 30.1656 31.0133 28.6723 30.76C27.6723 30.5867 26.759 30.18 25.9323 29.54C25.1056 28.8867 24.4656 28.0933 24.0123 27.16C23.959 27.0533 23.9856 26.9 24.0923 26.7C24.2123 26.5 24.3723 26.3133 24.5723 26.14C24.7723 25.9533 24.959 25.8333 25.1323 25.78C25.319 25.7133 25.439 25.7333 25.4923 25.84C25.9323 26.72 26.539 27.4667 27.3123 28.08C28.099 28.6933 28.9123 29.0733 29.7523 29.22C30.6056 29.3667 31.3056 29.3467 31.8523 29.16C32.4123 28.96 32.779 28.7267 32.9523 28.46C33.2723 27.9667 33.379 27.3667 33.2723 26.66C33.0856 25.3933 32.1923 24.4133 30.5923 23.72C30.3523 23.6133 29.9923 23.4867 29.5123 23.34C28.2723 22.9133 27.379 22.5 26.8323 22.1C26.2856 21.7 25.879 21.2 25.6123 20.6C25.3456 19.9867 25.279 19.3133 25.4123 18.58C25.559 17.8467 25.959 17.1333 26.6123 16.44C27.799 15.2133 29.1856 14.68 30.7723 14.84C31.7723 14.9467 32.6923 15.3067 33.5323 15.92C34.3856 16.52 35.0523 17.2733 35.5323 18.18C35.5856 18.2733 35.559 18.4267 35.4523 18.64ZM38.4528 25.32C38.3994 27.7867 39.4728 29.0933 41.6728 29.24C42.1394 29.28 42.5594 29.2667 42.9328 29.2C43.4128 29.12 43.6794 29.0267 43.7328 28.92C43.8394 28.72 43.9928 28.5267 44.1928 28.34C44.4061 28.1533 44.5994 28.0333 44.7728 27.98C44.9461 27.9133 45.0661 27.9333 45.1328 28.04C45.2261 28.2133 45.0994 28.5267 44.7528 28.98C44.4061 29.4333 44.0461 29.7867 43.6728 30.04C43.3128 30.3067 42.9594 30.4867 42.6128 30.58C41.8394 30.7933 41.1394 30.8533 40.5128 30.76C37.8861 30.5867 36.7061 28.9267 36.9728 25.78C37.0528 24.8067 37.1994 23.9667 37.4128 23.26C37.6261 22.54 37.9661 21.8667 38.4328 21.24C39.4994 19.8 40.8261 19.1133 42.4128 19.18C44.9328 19.2733 45.9861 20.9467 45.5728 24.2C45.4528 24.7333 45.1861 25.1133 44.7728 25.34C44.6128 25.4333 44.4394 25.4733 44.2528 25.46L38.4528 25.32ZM38.5928 23.82C38.6861 23.7933 38.7594 23.78 38.8128 23.78L44.1328 23.9C44.0928 21.8333 43.1394 20.7667 41.2728 20.7C40.3661 20.66 39.7594 20.8533 39.4528 21.28C39.0528 21.8133 38.7661 22.66 38.5928 23.82ZM48.2801 20.44C48.2935 20.2933 48.3801 20.1133 48.5401 19.9C48.7001 19.6867 48.8668 19.5267 49.0401 19.42C49.2135 19.3 49.3601 19.2267 49.4801 19.2C49.7201 19.1467 49.8268 19.22 49.8001 19.42L49.6601 20.74C50.0335 20.3133 50.4868 19.9467 51.0201 19.64C51.5535 19.3333 52.1001 19.18 52.6601 19.18C53.9668 19.1667 54.7801 19.82 55.1001 21.14C55.5668 20.5267 56.1001 20.0467 56.7001 19.7C57.3001 19.3533 57.8801 19.18 58.4401 19.18C60.3201 19.1533 61.0935 20.72 60.7601 23.88L60.2801 29.48C60.2668 29.6267 60.1801 29.8067 60.0201 30.02C59.8601 30.2333 59.6935 30.4 59.5201 30.52C59.3468 30.64 59.2068 30.7133 59.1001 30.74C58.8601 30.8067 58.7468 30.7333 58.7601 30.52L59.2401 24.92C59.5468 22.0933 58.9201 20.6867 57.3601 20.7C56.9735 20.7 56.6868 20.7533 56.5001 20.86C56.0468 21.1267 55.6268 21.8267 55.2401 22.96C55.2268 23.2533 55.2068 23.56 55.1801 23.88L54.7001 29.48C54.6868 29.6267 54.6001 29.8067 54.4401 30.02C54.2801 30.2333 54.1135 30.4 53.9401 30.52C53.7668 30.64 53.6268 30.7133 53.5201 30.74C53.2801 30.8067 53.1668 30.7333 53.1801 30.52L53.6601 24.92C53.6868 24.6133 53.7001 24.38 53.7001 24.22C53.7001 24.06 53.7068 23.9533 53.7201 23.9C53.7601 21.74 53.0468 20.6733 51.5801 20.7C51.1935 20.7 50.9068 20.7533 50.7201 20.86C50.2535 21.1267 49.8201 21.86 49.4201 23.06C49.4201 23.0733 49.4201 23.0933 49.4201 23.12L48.7401 29.5C48.7268 29.66 48.6401 29.84 48.4801 30.04C48.3201 30.2533 48.1535 30.4133 47.9801 30.52C47.8068 30.64 47.6601 30.7133 47.5401 30.74C47.3001 30.7933 47.1935 30.7133 47.2201 30.5L48.2801 20.44ZM71.4298 28.64C71.6031 28.6133 71.7031 28.6667 71.7298 28.8C71.7565 28.92 71.6965 29.0867 71.5498 29.3C71.4165 29.5133 71.1831 29.7533 70.8498 30.02C70.5165 30.2867 70.1631 30.4933 69.7898 30.64C69.0565 30.9333 68.6031 30.8 68.4298 30.24C68.3498 30.0133 68.3165 29.5933 68.3298 28.98C67.6365 29.82 66.9365 30.3667 66.2298 30.62C65.5231 30.8733 64.8631 30.9133 64.2498 30.74C62.3431 30.2067 61.7698 28.0067 62.5298 24.14C62.7831 22.86 63.2298 21.8067 63.8698 20.98C64.9631 19.5667 66.3031 18.9667 67.8898 19.18C68.5565 19.26 69.0765 19.5067 69.4498 19.92C69.7565 19.5067 70.0765 19.26 70.4098 19.18C70.5165 19.1533 70.5965 19.1667 70.6498 19.22C70.7165 19.26 70.7431 19.3333 70.7298 19.44C69.9565 25.08 69.6831 28.2533 69.9098 28.96C70.0165 29.28 70.1898 29.38 70.4298 29.26C70.5365 29.2067 70.6898 29.1 70.8898 28.94C71.0898 28.7667 71.2698 28.6667 71.4298 28.64ZM68.4298 26.98C68.5231 25.9133 68.5898 25.2333 68.6298 24.94C68.9765 22.3267 68.3298 20.9133 66.6898 20.7C66.2898 20.6467 65.9431 20.6533 65.6498 20.72C65.2498 20.8 64.9765 20.9267 64.8298 21.1C64.4965 21.5267 64.2231 22.2867 64.0098 23.38C63.7965 24.4733 63.7031 25.44 63.7298 26.28C63.8098 27.9333 64.3965 28.9133 65.4898 29.22C66.3298 29.46 66.9765 29.3067 67.4298 28.76C67.7631 28.36 68.0965 27.7667 68.4298 26.98ZM80.0623 28.26C80.2356 28.0467 80.4223 27.8733 80.6223 27.74C80.8356 27.6067 81.0023 27.5533 81.1223 27.58C81.2556 27.6067 81.309 27.7 81.2823 27.86C81.189 28.38 80.989 28.8467 80.6823 29.26C80.3756 29.66 80.0556 29.9733 79.7223 30.2C79.4023 30.4267 79.0956 30.58 78.8023 30.66C78.1356 30.82 77.569 30.8533 77.1023 30.76C74.009 30.4533 72.749 28.66 73.3223 25.38C73.829 22.54 74.9223 20.64 76.6023 19.68C77.2556 19.3067 77.889 19.1067 78.5023 19.08C80.649 19 81.7623 20.02 81.8423 22.14C81.8423 22.2733 81.769 22.4467 81.6223 22.66C81.489 22.8733 81.3356 23.0467 81.1623 23.18C80.989 23.3 80.8423 23.38 80.7223 23.42C80.469 23.5133 80.3356 23.46 80.3223 23.26C80.2423 21.42 79.2756 20.54 77.4223 20.62C76.8356 20.6467 76.4223 20.7667 76.1823 20.98C75.5956 21.5267 75.1556 22.6067 74.8623 24.22C74.5823 25.82 74.7223 27.02 75.2823 27.82C75.8556 28.62 76.849 29.0933 78.2623 29.24C78.8623 29.2933 79.3356 29.26 79.6823 29.14C79.7223 29.0467 79.749 28.9267 79.7623 28.78C79.789 28.6333 79.889 28.46 80.0623 28.26ZM84.6534 14.44C84.6667 14.28 84.7534 14.0933 84.9134 13.88C85.0734 13.6667 85.2401 13.5067 85.4134 13.4C85.5867 13.28 85.7267 13.2067 85.8334 13.18C86.0734 13.1133 86.1867 13.1867 86.1734 13.4L85.4934 20.9C85.9067 20.4067 86.3867 20 86.9334 19.68C87.4934 19.3467 88.0534 19.18 88.6134 19.18C90.8934 19.1533 91.8667 20.72 91.5334 23.88L91.0534 29.48C91.0401 29.6267 90.9534 29.8067 90.7934 30.02C90.6334 30.2333 90.4667 30.4 90.2934 30.52C90.1201 30.64 89.9801 30.7133 89.8734 30.74C89.6334 30.8067 89.5201 30.7333 89.5334 30.52L90.0134 24.92C90.3201 22.0933 89.4934 20.6867 87.5334 20.7C87.1467 20.7 86.8601 20.7533 86.6734 20.86C86.2067 21.1267 85.7734 21.86 85.3734 23.06C85.3467 23.14 85.3067 23.2267 85.2534 23.32L84.6934 29.48C84.6801 29.6267 84.5934 29.8067 84.4334 30.02C84.2734 30.2467 84.1067 30.4133 83.9334 30.52C83.7601 30.64 83.6201 30.7133 83.5134 30.74C83.2734 30.8067 83.1601 30.7333 83.1734 30.52L84.6534 14.44ZM94.2957 20.44C94.3091 20.2933 94.3957 20.1133 94.5557 19.9C94.7157 19.6867 94.8824 19.5267 95.0557 19.42C95.2291 19.3 95.3757 19.2267 95.4957 19.2C95.7357 19.1467 95.8424 19.22 95.8157 19.42L94.7557 29.5C94.7424 29.66 94.6557 29.84 94.4957 30.04C94.3357 30.2533 94.1691 30.4133 93.9957 30.52C93.8224 30.64 93.6757 30.7133 93.5557 30.74C93.3157 30.7933 93.2091 30.7133 93.2357 30.5L94.2957 20.44ZM94.3957 17C94.4091 16.8533 94.4891 16.6733 94.6357 16.46C94.7957 16.2467 94.9624 16.08 95.1357 15.96C95.3091 15.84 95.4557 15.7667 95.5757 15.74C95.8157 15.6733 95.9291 15.7467 95.9157 15.96L95.8157 17.36C95.8024 17.5067 95.7157 17.6867 95.5557 17.9C95.4091 18.1133 95.2491 18.28 95.0757 18.4C94.9024 18.52 94.7557 18.5933 94.6357 18.62C94.3957 18.6867 94.2824 18.6133 94.2957 18.4L94.3957 17ZM108.484 16.1C108.497 15.9533 108.584 15.7733 108.744 15.56C108.917 15.3467 109.084 15.1867 109.244 15.08C109.417 14.96 109.557 14.8867 109.664 14.86C109.784 14.8333 109.871 14.84 109.924 14.88C109.991 14.92 110.017 14.9933 110.004 15.1L108.724 26.54C108.631 27.46 108.344 28.2467 107.864 28.9C106.971 30.1533 105.764 30.7733 104.244 30.76C101.991 30.7467 100.817 29.68 100.724 27.56C100.724 27.4267 100.791 27.2533 100.924 27.04C101.071 26.8267 101.231 26.66 101.404 26.54C101.577 26.4067 101.724 26.32 101.844 26.28C102.097 26.1867 102.231 26.24 102.244 26.44C102.337 28.2933 103.377 29.2267 105.364 29.24C106.044 29.24 106.517 29.14 106.784 28.94C106.864 28.8467 106.944 28.6533 107.024 28.36C107.117 28.0667 107.177 27.7933 107.204 27.54L108.484 16.1ZM119.692 28.64C119.865 28.6133 119.965 28.6667 119.992 28.8C120.018 28.92 119.958 29.0867 119.812 29.3C119.678 29.5133 119.445 29.7533 119.112 30.02C118.778 30.2867 118.425 30.4933 118.052 30.64C117.318 30.9333 116.865 30.8 116.692 30.24C116.612 30.0133 116.578 29.5933 116.592 28.98C115.898 29.82 115.198 30.3667 114.492 30.62C113.785 30.8733 113.125 30.9133 112.512 30.74C110.605 30.2067 110.032 28.0067 110.792 24.14C111.045 22.86 111.492 21.8067 112.132 20.98C113.225 19.5667 114.565 18.9667 116.152 19.18C116.818 19.26 117.338 19.5067 117.712 19.92C118.018 19.5067 118.338 19.26 118.672 19.18C118.778 19.1533 118.858 19.1667 118.912 19.22C118.978 19.26 119.005 19.3333 118.992 19.44C118.218 25.08 117.945 28.2533 118.172 28.96C118.278 29.28 118.452 29.38 118.692 29.26C118.798 29.2067 118.952 29.1 119.152 28.94C119.352 28.7667 119.532 28.6667 119.692 28.64ZM116.692 26.98C116.785 25.9133 116.852 25.2333 116.892 24.94C117.238 22.3267 116.592 20.9133 114.952 20.7C114.552 20.6467 114.205 20.6533 113.912 20.72C113.512 20.8 113.238 20.9267 113.092 21.1C112.758 21.5267 112.485 22.2867 112.272 23.38C112.058 24.4733 111.965 25.44 111.992 26.28C112.072 27.9333 112.658 28.9133 113.752 29.22C114.592 29.46 115.238 29.3067 115.692 28.76C116.025 28.36 116.358 27.7667 116.692 26.98ZM122.284 20.44C122.297 20.2933 122.384 20.1133 122.544 19.9C122.704 19.6867 122.871 19.5267 123.044 19.42C123.217 19.3 123.364 19.2267 123.484 19.2C123.724 19.1467 123.831 19.22 123.804 19.42L123.664 20.74C124.037 20.3133 124.491 19.9467 125.024 19.64C125.557 19.3333 126.104 19.18 126.664 19.18C128.944 19.1533 129.917 20.72 129.584 23.88L129.104 29.48C129.091 29.6267 129.004 29.8067 128.844 30.02C128.684 30.2333 128.517 30.4 128.344 30.52C128.171 30.64 128.031 30.7133 127.924 30.74C127.684 30.8067 127.571 30.7333 127.584 30.52L128.064 24.92C128.371 22.0933 127.544 20.6867 125.584 20.7C125.197 20.7 124.911 20.7533 124.724 20.86C124.257 21.1267 123.824 21.86 123.424 23.06C123.424 23.0733 123.424 23.0933 123.424 23.12L122.744 29.5C122.731 29.66 122.644 29.84 122.484 30.04C122.324 30.2533 122.157 30.4133 121.984 30.52C121.811 30.64 121.664 30.7133 121.544 30.74C121.304 30.7933 121.197 30.7133 121.224 30.5L122.284 20.44ZM139.323 19.82C139.59 19.4867 139.823 19.2933 140.023 19.24C140.356 19.1467 140.516 19.2 140.503 19.4C140.236 23.7333 140.036 26.3667 139.903 27.3C139.796 28.4067 139.623 29.36 139.383 30.16C139.143 30.96 138.75 31.7267 138.203 32.46C137.67 33.2067 137.043 33.76 136.323 34.12C135.603 34.48 134.876 34.6533 134.143 34.64C132.636 34.6267 131.603 34.16 131.043 33.24C130.99 33.1467 131.01 32.9933 131.103 32.78C131.21 32.58 131.363 32.3867 131.563 32.2C131.763 32.0267 131.956 31.9067 132.143 31.84C132.33 31.7733 132.456 31.7867 132.523 31.88C133.003 32.6933 133.916 33.1067 135.263 33.12C136.223 33.1333 136.883 32.88 137.243 32.36C137.75 31.6533 138.11 30.5133 138.323 28.94C137.63 29.7933 136.923 30.3467 136.203 30.6C135.496 30.8667 134.836 30.9133 134.223 30.74C132.316 30.2067 131.743 28.0067 132.503 24.14C132.756 22.86 133.203 21.8067 133.843 20.98C134.936 19.5667 136.276 18.9667 137.863 19.18C138.463 19.26 138.95 19.4733 139.323 19.82ZM138.543 26.7C138.636 25.6733 138.676 25.16 138.663 25.16C138.61 25.12 138.59 25.0467 138.603 24.94C138.95 22.3267 138.303 20.9133 136.663 20.7C136.263 20.6467 135.916 20.6533 135.623 20.72C135.21 20.8 134.936 20.9267 134.803 21.1C134.47 21.5267 134.196 22.2867 133.983 23.38C133.77 24.4733 133.676 25.44 133.703 26.28C133.783 27.9333 134.37 28.9133 135.463 29.22C136.303 29.46 136.95 29.3067 137.403 28.76C137.75 28.3467 138.096 27.7267 138.443 26.9C138.47 26.8333 138.503 26.7667 138.543 26.7ZM148.899 14.52C148.913 14.36 148.999 14.18 149.159 13.98C149.319 13.7667 149.486 13.6 149.659 13.48C149.833 13.36 149.973 13.2867 150.079 13.26C150.319 13.1933 150.433 13.2667 150.419 13.48L149.059 29.48C149.046 29.6267 148.959 29.8067 148.799 30.02C148.639 30.2333 148.473 30.4 148.299 30.52C148.126 30.64 147.986 30.7133 147.879 30.74C147.639 30.8067 147.526 30.7333 147.539 30.52L147.679 28.94C146.999 29.78 146.299 30.3333 145.579 30.6C144.859 30.8667 144.193 30.9133 143.579 30.74C141.686 30.1933 141.113 27.9933 141.859 24.14C142.113 22.86 142.559 21.8067 143.199 20.98C144.306 19.5667 145.646 18.9667 147.219 19.18C147.713 19.2467 148.126 19.3933 148.459 19.62L148.899 14.52ZM148.179 23.06C148.006 21.6333 147.286 20.8467 146.019 20.7C145.633 20.66 145.293 20.6667 144.999 20.72C144.573 20.8 144.293 20.9267 144.159 21.1C143.826 21.54 143.566 22.2467 143.379 23.22C142.686 26.7667 143.166 28.7667 144.819 29.22C145.659 29.46 146.306 29.3067 146.759 28.76C147.106 28.3467 147.453 27.7267 147.799 26.9C147.813 26.86 147.833 26.82 147.859 26.78L148.179 23.06ZM160.024 28.64C160.197 28.6133 160.297 28.6667 160.324 28.8C160.35 28.92 160.29 29.0867 160.144 29.3C160.01 29.5133 159.777 29.7533 159.444 30.02C159.11 30.2867 158.757 30.4933 158.384 30.64C157.65 30.9333 157.197 30.8 157.024 30.24C156.944 30.0133 156.91 29.5933 156.924 28.98C156.23 29.82 155.53 30.3667 154.824 30.62C154.117 30.8733 153.457 30.9133 152.844 30.74C150.937 30.2067 150.364 28.0067 151.124 24.14C151.377 22.86 151.824 21.8067 152.464 20.98C153.557 19.5667 154.897 18.9667 156.484 19.18C157.15 19.26 157.67 19.5067 158.044 19.92C158.35 19.5067 158.67 19.26 159.004 19.18C159.11 19.1533 159.19 19.1667 159.244 19.22C159.31 19.26 159.337 19.3333 159.324 19.44C158.55 25.08 158.277 28.2533 158.504 28.96C158.61 29.28 158.784 29.38 159.024 29.26C159.13 29.2067 159.284 29.1 159.484 28.94C159.684 28.7667 159.864 28.6667 160.024 28.64ZM157.024 26.98C157.117 25.9133 157.184 25.2333 157.224 24.94C157.57 22.3267 156.924 20.9133 155.284 20.7C154.884 20.6467 154.537 20.6533 154.244 20.72C153.844 20.8 153.57 20.9267 153.424 21.1C153.09 21.5267 152.817 22.2867 152.604 23.38C152.39 24.4733 152.297 25.44 152.324 26.28C152.404 27.9333 152.99 28.9133 154.084 29.22C154.924 29.46 155.57 29.3067 156.024 28.76C156.357 28.36 156.69 27.7667 157.024 26.98ZM162.616 20.44C162.629 20.2933 162.716 20.1133 162.876 19.9C163.036 19.6867 163.203 19.5267 163.376 19.42C163.549 19.3 163.696 19.2267 163.816 19.2C164.056 19.1467 164.163 19.22 164.136 19.42L163.996 20.74C164.369 20.3133 164.823 19.9467 165.356 19.64C165.889 19.3333 166.436 19.18 166.996 19.18C169.276 19.1533 170.249 20.72 169.916 23.88L169.436 29.48C169.423 29.6267 169.336 29.8067 169.176 30.02C169.016 30.2333 168.849 30.4 168.676 30.52C168.503 30.64 168.363 30.7133 168.256 30.74C168.016 30.8067 167.903 30.7333 167.916 30.52L168.396 24.92C168.703 22.0933 167.876 20.6867 165.916 20.7C165.529 20.7 165.243 20.7533 165.056 20.86C164.589 21.1267 164.156 21.86 163.756 23.06C163.756 23.0733 163.756 23.0933 163.756 23.12L163.076 29.5C163.063 29.66 162.976 29.84 162.816 30.04C162.656 30.2533 162.489 30.4133 162.316 30.52C162.143 30.64 161.996 30.7133 161.876 30.74C161.636 30.7933 161.529 30.7133 161.556 30.5L162.616 20.44Z" fill="#401E0B"/>
</svg>
